<svg xmlns="http://www.w3.org/2000/svg" xml:space="preserve" width="128" height="128" viewBox="78 31 128 128">
  <g transform="translate(19.8 7.9)scale(.746)">
    <defs>
      <path id="a" d="M78 31h172v172H78z"/>
    </defs>
    <clipPath id="b">
      <use href="#a" overflow="visible"/>
    </clipPath>
    <g clip-path="url(#b)">
      <path fill="#5865f2" d="M78 116.8a85.8 85.8 0 1 1 85.8 85.8A86 86 0 0 1 78 116.8"/>
      <path fill="#fff" d="M202.4 81.9a91 91 0 0 0-22.8-7c-1 1.8-2.1 4.1-2.9 6a83 83 0 0 0-25.3 0 56 56 0 0 0-3-6 86 86 0 0 0-22.8 7.1 94 94 0 0 0-16.4 63.1 90 90 0 0 0 28 14.1 65 65 0 0 0 6-9.7 54 54 0 0 1-9.4-4.5l2.3-1.8a65 65 0 0 0 56 0l2.3 1.8a55 55 0 0 1-9.5 4.5 65 65 0 0 0 6 9.7 91 91 0 0 0 28-14.1c2.2-24-4-44.8-16.5-63.2m-56.8 50.4c-5.5 0-9.9-5-9.9-11.1s4.4-11.2 9.9-11.2 10 5 10 11.2c-.1 6.1-4.4 11.1-10 11.1m36.8 0c-5.5 0-9.9-5-9.9-11.1s4.4-11.2 9.9-11.2 10 5 9.9 11.2-4.4 11.1-9.9 11.1"/>
    </g>
  </g>
  <path fill="none" d="M64 17h200v200H64z"/>
</svg>