<svg xmlns="http://www.w3.org/2000/svg" xml:space="preserve" width="128" height="128" viewBox="78 31 128 128">
  <circle cx="142" cy="95" r="64" fill="#fff"/>
  <path fill="#0066da" d="m106.8 119.7 3.7 6.3a9 9 0 0 0 3.1 3l13-22.4h-26q0 2.2 1.1 4.2z"/>
  <path fill="#00ac47" d="m141.9 80-13-22.4a9 9 0 0 0-3.1 3.1l-24 41.6a9 9 0 0 0-1.2 4.3h26z"/>
  <path fill="#ea4335" d="M170.1 129a9 9 0 0 0 3.2-3l1.5-2.6 7.2-12.6a9 9 0 0 0 1.2-4.2h-26l5.5 10.8z"/>
  <path fill="#00832d" d="m141.9 80 13-22.4a8 8 0 0 0-4.3-1.1h-17.5q-2.3 0-4.2 1z"/>
  <path fill="#2684fc" d="M157.1 106.6h-30.5l-13 22.5q2 1 4.3 1.1h48q2.3 0 4.2-1.1z"/>
  <path fill="#ffba00" d="m170 81.5-12-20.8a9 9 0 0 0-3.1-3.1l-13 22.5 15.2 26.5h26q0-2.3-1.1-4.3z"/>
</svg>